<?xml version='1.0' encoding='utf-8'?><!-- Generator: DarwingMaster 1.1.5, SVG Export Plug-In . SVG Version: 6.00 Build 0)--><svg version="1.1" x="0" y="0" viewBox="0 0 1024 1024" xmlns="http://www.w3.org/2000/svg" xmlns:xlink="http://www.w3.org/1999/xlink">
  <style type="text/css">.st2{stroke:none;stroke-width:1;stroke-linecap:butt;stroke-linejoin:miter;fill:#707070;fill-opacity:1;fill-rule:nonZero;}</style>
  <defs/>
  <path class="st2" id="路径2" d="M 360.5889542327184 879.231472692803 C 347.7889545869259 879.2307595577975 334.9992268235774 874.3500471149691 325.22977085937947 864.5895030624732 C 305.70085948784424 845.0584155148943 305.7026228255747 813.4084163907274 325.23371037315377 793.8795050191924 C 325.23371037315377 793.8795050191924 608.839501808735 510.3153127068962 608.839501808735 510.3153127068962 C 608.839501808735 510.3153127068962 325.27530893930276 226.71952127103754 325.27530893930276 226.71952127103754 C 305.7463975677671 207.1884337234588 305.7481609054978 175.5384345992918 325.27924845307695 156.00952322775672 C 344.81033600065484 136.4806118562212 376.47033456740866 136.4923757508122 395.98924649635745 156.01346274153013 C 395.98924649635745 156.01346274153013 714.901468352112 474.97122267720937 714.901468352112 474.97122267720937 C 734.4303797236483 494.5023102247877 734.4286163859184 526.1523093489543 714.8975288383392 545.6812207204911 C 714.8975288383392 545.6812207204911 395.9497689023837 864.5934431333839 395.9497689023837 864.5934431333839 C 386.1792254073015 874.3528985407216 373.3889538785114 879.2321858278101 360.5889542327184 879.231472692803  Z "/>
</svg>